<mxfile host="app.diagrams.net" modified="2024-01-29T06:06:19.060Z" agent="Mozilla/5.0 (Windows NT 10.0; Win64; x64) AppleWebKit/537.36 (KHTML, like Gecko) Chrome/120.0.0.0 Safari/537.36" etag="cuMkqmjBrcFa-iXAWKw_" version="23.0.2" type="github" pages="2">
  <diagram name="페이지-1" id="cs5hVTkYpUWlJeEx8o5R">
    <mxGraphModel dx="2876" dy="1114" grid="1" gridSize="10" guides="1" tooltips="1" connect="1" arrows="1" fold="1" page="1" pageScale="1" pageWidth="827" pageHeight="1169" math="0" shadow="0">
      <root>
        <mxCell id="0" />
        <mxCell id="1" parent="0" />
        <mxCell id="RcSikvNdpBfUBouSiyMR-1" value="고객" style="rounded=0;whiteSpace=wrap;html=1;" vertex="1" parent="1">
          <mxGeometry x="174" y="405" width="120" height="60" as="geometry" />
        </mxCell>
        <mxCell id="RcSikvNdpBfUBouSiyMR-2" value="제품" style="rounded=0;whiteSpace=wrap;html=1;" vertex="1" parent="1">
          <mxGeometry x="670" y="410" width="120" height="60" as="geometry" />
        </mxCell>
        <mxCell id="RcSikvNdpBfUBouSiyMR-3" value="고객코드" style="ellipse;whiteSpace=wrap;html=1;fillColor=#dae8fc;strokeColor=#6c8ebf;" vertex="1" parent="1">
          <mxGeometry x="-150" y="170" width="100" height="50" as="geometry" />
        </mxCell>
        <mxCell id="RcSikvNdpBfUBouSiyMR-4" value="고객명" style="ellipse;whiteSpace=wrap;html=1;" vertex="1" parent="1">
          <mxGeometry x="-150" y="230" width="100" height="50" as="geometry" />
        </mxCell>
        <mxCell id="RcSikvNdpBfUBouSiyMR-6" value="전화번호" style="ellipse;whiteSpace=wrap;html=1;" vertex="1" parent="1">
          <mxGeometry x="-150" y="300" width="100" height="50" as="geometry" />
        </mxCell>
        <mxCell id="RcSikvNdpBfUBouSiyMR-76" style="edgeStyle=orthogonalEdgeStyle;rounded=0;orthogonalLoop=1;jettySize=auto;html=1;exitX=0.5;exitY=0;exitDx=0;exitDy=0;" edge="1" parent="1" source="RcSikvNdpBfUBouSiyMR-7">
          <mxGeometry relative="1" as="geometry">
            <mxPoint x="-90" y="390" as="targetPoint" />
          </mxGeometry>
        </mxCell>
        <mxCell id="RcSikvNdpBfUBouSiyMR-7" value="이메일" style="ellipse;whiteSpace=wrap;html=1;" vertex="1" parent="1">
          <mxGeometry x="-150" y="380" width="100" height="50" as="geometry" />
        </mxCell>
        <mxCell id="RcSikvNdpBfUBouSiyMR-11" value="가입일" style="ellipse;whiteSpace=wrap;html=1;" vertex="1" parent="1">
          <mxGeometry x="-150" y="550" width="100" height="50" as="geometry" />
        </mxCell>
        <mxCell id="RcSikvNdpBfUBouSiyMR-12" value="지역" style="ellipse;whiteSpace=wrap;html=1;" vertex="1" parent="1">
          <mxGeometry x="184" y="130" width="100" height="50" as="geometry" />
        </mxCell>
        <mxCell id="RcSikvNdpBfUBouSiyMR-13" value="지역코드" style="ellipse;whiteSpace=wrap;html=1;fillColor=#dae8fc;strokeColor=#6c8ebf;" vertex="1" parent="1">
          <mxGeometry x="224" y="10" width="100" height="50" as="geometry" />
        </mxCell>
        <mxCell id="RcSikvNdpBfUBouSiyMR-16" value="지역명" style="ellipse;whiteSpace=wrap;html=1;" vertex="1" parent="1">
          <mxGeometry x="110" y="20" width="100" height="50" as="geometry" />
        </mxCell>
        <mxCell id="RcSikvNdpBfUBouSiyMR-17" value="" style="endArrow=none;html=1;rounded=0;" edge="1" parent="1" source="RcSikvNdpBfUBouSiyMR-13" target="RcSikvNdpBfUBouSiyMR-12">
          <mxGeometry relative="1" as="geometry">
            <mxPoint x="-240" y="488.78999999999996" as="sourcePoint" />
            <mxPoint x="-80" y="488.78999999999996" as="targetPoint" />
          </mxGeometry>
        </mxCell>
        <mxCell id="RcSikvNdpBfUBouSiyMR-18" value="" style="endArrow=none;html=1;rounded=0;" edge="1" parent="1" source="RcSikvNdpBfUBouSiyMR-16" target="RcSikvNdpBfUBouSiyMR-12">
          <mxGeometry relative="1" as="geometry">
            <mxPoint x="-220" y="580" as="sourcePoint" />
            <mxPoint x="-152" y="593" as="targetPoint" />
          </mxGeometry>
        </mxCell>
        <mxCell id="RcSikvNdpBfUBouSiyMR-22" value="" style="endArrow=none;html=1;rounded=0;" edge="1" parent="1" source="RcSikvNdpBfUBouSiyMR-2" target="RcSikvNdpBfUBouSiyMR-40">
          <mxGeometry relative="1" as="geometry">
            <mxPoint x="620.6855959132631" y="250.0030676652778" as="sourcePoint" />
            <mxPoint x="865.0033333333331" y="381.6800000000001" as="targetPoint" />
          </mxGeometry>
        </mxCell>
        <mxCell id="RcSikvNdpBfUBouSiyMR-25" value="" style="endArrow=none;html=1;rounded=0;" edge="1" parent="1" source="RcSikvNdpBfUBouSiyMR-6" target="RcSikvNdpBfUBouSiyMR-1">
          <mxGeometry relative="1" as="geometry">
            <mxPoint x="-35" y="370" as="sourcePoint" />
            <mxPoint x="85" y="373" as="targetPoint" />
          </mxGeometry>
        </mxCell>
        <mxCell id="RcSikvNdpBfUBouSiyMR-26" value="" style="endArrow=none;html=1;rounded=0;" edge="1" parent="1" source="RcSikvNdpBfUBouSiyMR-7" target="RcSikvNdpBfUBouSiyMR-1">
          <mxGeometry relative="1" as="geometry">
            <mxPoint x="-45" y="374" as="sourcePoint" />
            <mxPoint x="80" y="344" as="targetPoint" />
          </mxGeometry>
        </mxCell>
        <mxCell id="RcSikvNdpBfUBouSiyMR-30" value="주소" style="ellipse;whiteSpace=wrap;html=1;" vertex="1" parent="1">
          <mxGeometry x="-165" y="440" width="130" height="80" as="geometry" />
        </mxCell>
        <mxCell id="RcSikvNdpBfUBouSiyMR-32" value="기본주소" style="ellipse;whiteSpace=wrap;html=1;" vertex="1" parent="1">
          <mxGeometry x="-350" y="440" width="100" height="50" as="geometry" />
        </mxCell>
        <mxCell id="RcSikvNdpBfUBouSiyMR-34" value="상세주소" style="ellipse;whiteSpace=wrap;html=1;" vertex="1" parent="1">
          <mxGeometry x="-350" y="535" width="100" height="50" as="geometry" />
        </mxCell>
        <mxCell id="RcSikvNdpBfUBouSiyMR-36" value="" style="endArrow=none;html=1;rounded=0;" edge="1" parent="1" source="RcSikvNdpBfUBouSiyMR-32" target="RcSikvNdpBfUBouSiyMR-30">
          <mxGeometry relative="1" as="geometry">
            <mxPoint x="-260" y="470" as="sourcePoint" />
            <mxPoint x="-120" y="464.63" as="targetPoint" />
          </mxGeometry>
        </mxCell>
        <mxCell id="RcSikvNdpBfUBouSiyMR-37" value="" style="endArrow=none;html=1;rounded=0;" edge="1" parent="1" source="RcSikvNdpBfUBouSiyMR-34" target="RcSikvNdpBfUBouSiyMR-30">
          <mxGeometry relative="1" as="geometry">
            <mxPoint x="-260" y="570" as="sourcePoint" />
            <mxPoint x="-167" y="591" as="targetPoint" />
          </mxGeometry>
        </mxCell>
        <mxCell id="RcSikvNdpBfUBouSiyMR-40" value="제품코드" style="ellipse;whiteSpace=wrap;html=1;fillColor=#dae8fc;strokeColor=#6c8ebf;" vertex="1" parent="1">
          <mxGeometry x="880" y="310" width="100" height="50" as="geometry" />
        </mxCell>
        <mxCell id="RcSikvNdpBfUBouSiyMR-41" value="제품명" style="ellipse;whiteSpace=wrap;html=1;" vertex="1" parent="1">
          <mxGeometry x="880" y="370" width="100" height="50" as="geometry" />
        </mxCell>
        <mxCell id="RcSikvNdpBfUBouSiyMR-44" value="가격" style="ellipse;whiteSpace=wrap;html=1;" vertex="1" parent="1">
          <mxGeometry x="880" y="430" width="100" height="50" as="geometry" />
        </mxCell>
        <mxCell id="RcSikvNdpBfUBouSiyMR-46" value="" style="endArrow=none;html=1;rounded=0;" edge="1" parent="1" source="RcSikvNdpBfUBouSiyMR-4">
          <mxGeometry relative="1" as="geometry">
            <mxPoint x="-56" y="283" as="sourcePoint" />
            <mxPoint x="188" y="415" as="targetPoint" />
          </mxGeometry>
        </mxCell>
        <mxCell id="RcSikvNdpBfUBouSiyMR-47" value="" style="endArrow=none;html=1;rounded=0;" edge="1" parent="1" source="RcSikvNdpBfUBouSiyMR-2" target="RcSikvNdpBfUBouSiyMR-41">
          <mxGeometry relative="1" as="geometry">
            <mxPoint x="797" y="420" as="sourcePoint" />
            <mxPoint x="905" y="363" as="targetPoint" />
          </mxGeometry>
        </mxCell>
        <mxCell id="RcSikvNdpBfUBouSiyMR-48" value="" style="endArrow=none;html=1;rounded=0;" edge="1" parent="1" source="RcSikvNdpBfUBouSiyMR-2" target="RcSikvNdpBfUBouSiyMR-44">
          <mxGeometry relative="1" as="geometry">
            <mxPoint x="800" y="436" as="sourcePoint" />
            <mxPoint x="880.5398268822946" y="451.3362834727625" as="targetPoint" />
          </mxGeometry>
        </mxCell>
        <mxCell id="RcSikvNdpBfUBouSiyMR-49" value="" style="endArrow=none;html=1;rounded=0;" edge="1" parent="1" source="RcSikvNdpBfUBouSiyMR-2" target="RcSikvNdpBfUBouSiyMR-79">
          <mxGeometry relative="1" as="geometry">
            <mxPoint x="800" y="455" as="sourcePoint" />
            <mxPoint x="937.1645966222418" y="617.4748286752604" as="targetPoint" />
          </mxGeometry>
        </mxCell>
        <mxCell id="RcSikvNdpBfUBouSiyMR-50" value="1" style="text;html=1;align=center;verticalAlign=middle;resizable=0;points=[];autosize=1;strokeColor=none;fillColor=none;" vertex="1" parent="1">
          <mxGeometry x="765" y="468" width="30" height="30" as="geometry" />
        </mxCell>
        <mxCell id="RcSikvNdpBfUBouSiyMR-51" value="N" style="text;html=1;align=center;verticalAlign=middle;resizable=0;points=[];autosize=1;strokeColor=none;fillColor=none;" vertex="1" parent="1">
          <mxGeometry x="910" y="570" width="30" height="30" as="geometry" />
        </mxCell>
        <mxCell id="RcSikvNdpBfUBouSiyMR-52" value="구매&lt;br&gt;" style="rhombus;whiteSpace=wrap;html=1;" vertex="1" parent="1">
          <mxGeometry x="440" y="400" width="110" height="80" as="geometry" />
        </mxCell>
        <mxCell id="RcSikvNdpBfUBouSiyMR-53" value="" style="endArrow=none;html=1;rounded=0;" edge="1" parent="1" source="RcSikvNdpBfUBouSiyMR-1" target="RcSikvNdpBfUBouSiyMR-52">
          <mxGeometry relative="1" as="geometry">
            <mxPoint x="294" y="439.29" as="sourcePoint" />
            <mxPoint x="454" y="439.29" as="targetPoint" />
          </mxGeometry>
        </mxCell>
        <mxCell id="RcSikvNdpBfUBouSiyMR-54" value="" style="endArrow=none;html=1;rounded=0;" edge="1" parent="1" target="RcSikvNdpBfUBouSiyMR-2">
          <mxGeometry relative="1" as="geometry">
            <mxPoint x="530" y="443" as="sourcePoint" />
            <mxPoint x="660" y="440" as="targetPoint" />
          </mxGeometry>
        </mxCell>
        <mxCell id="RcSikvNdpBfUBouSiyMR-56" value="M" style="text;html=1;align=center;verticalAlign=middle;resizable=0;points=[];autosize=1;strokeColor=none;fillColor=none;" vertex="1" parent="1">
          <mxGeometry x="350" y="410" width="30" height="30" as="geometry" />
        </mxCell>
        <mxCell id="RcSikvNdpBfUBouSiyMR-57" value="N" style="text;html=1;align=center;verticalAlign=middle;resizable=0;points=[];autosize=1;strokeColor=none;fillColor=none;" vertex="1" parent="1">
          <mxGeometry x="595" y="410" width="30" height="30" as="geometry" />
        </mxCell>
        <mxCell id="RcSikvNdpBfUBouSiyMR-58" value="구매수량" style="ellipse;whiteSpace=wrap;html=1;align=center;" vertex="1" parent="1">
          <mxGeometry x="340" y="550" width="100" height="40" as="geometry" />
        </mxCell>
        <mxCell id="RcSikvNdpBfUBouSiyMR-59" value="구매일자" style="ellipse;whiteSpace=wrap;html=1;align=center;" vertex="1" parent="1">
          <mxGeometry x="540" y="550" width="100" height="40" as="geometry" />
        </mxCell>
        <mxCell id="RcSikvNdpBfUBouSiyMR-65" value="" style="endArrow=none;html=1;rounded=0;" edge="1" parent="1" source="RcSikvNdpBfUBouSiyMR-58" target="RcSikvNdpBfUBouSiyMR-52">
          <mxGeometry relative="1" as="geometry">
            <mxPoint x="310" y="520" as="sourcePoint" />
            <mxPoint x="470" y="520" as="targetPoint" />
          </mxGeometry>
        </mxCell>
        <mxCell id="RcSikvNdpBfUBouSiyMR-66" value="" style="endArrow=none;html=1;rounded=0;" edge="1" parent="1" source="RcSikvNdpBfUBouSiyMR-59" target="RcSikvNdpBfUBouSiyMR-52">
          <mxGeometry relative="1" as="geometry">
            <mxPoint x="415" y="561" as="sourcePoint" />
            <mxPoint x="485" y="475" as="targetPoint" />
          </mxGeometry>
        </mxCell>
        <mxCell id="RcSikvNdpBfUBouSiyMR-68" value="관리" style="rhombus;whiteSpace=wrap;html=1;" vertex="1" parent="1">
          <mxGeometry x="206" y="280" width="56" height="55" as="geometry" />
        </mxCell>
        <mxCell id="RcSikvNdpBfUBouSiyMR-69" value="" style="endArrow=none;html=1;rounded=0;exitX=0.5;exitY=0;exitDx=0;exitDy=0;" edge="1" parent="1" source="RcSikvNdpBfUBouSiyMR-1" target="RcSikvNdpBfUBouSiyMR-68">
          <mxGeometry relative="1" as="geometry">
            <mxPoint x="206" y="374.5" as="sourcePoint" />
            <mxPoint x="280" y="340" as="targetPoint" />
          </mxGeometry>
        </mxCell>
        <mxCell id="RcSikvNdpBfUBouSiyMR-70" value="" style="endArrow=none;html=1;rounded=0;exitX=0.5;exitY=0;exitDx=0;exitDy=0;" edge="1" parent="1" source="RcSikvNdpBfUBouSiyMR-68" target="RcSikvNdpBfUBouSiyMR-12">
          <mxGeometry relative="1" as="geometry">
            <mxPoint x="240" y="290" as="sourcePoint" />
            <mxPoint x="230" y="230" as="targetPoint" />
          </mxGeometry>
        </mxCell>
        <mxCell id="RcSikvNdpBfUBouSiyMR-71" value="1" style="text;html=1;align=center;verticalAlign=middle;resizable=0;points=[];autosize=1;strokeColor=none;fillColor=none;" vertex="1" parent="1">
          <mxGeometry x="240" y="200" width="30" height="30" as="geometry" />
        </mxCell>
        <mxCell id="RcSikvNdpBfUBouSiyMR-72" value="N" style="text;html=1;align=center;verticalAlign=middle;resizable=0;points=[];autosize=1;strokeColor=none;fillColor=none;" vertex="1" parent="1">
          <mxGeometry x="250" y="350" width="30" height="30" as="geometry" />
        </mxCell>
        <mxCell id="RcSikvNdpBfUBouSiyMR-74" value="" style="endArrow=none;html=1;rounded=0;" edge="1" parent="1" source="RcSikvNdpBfUBouSiyMR-11" target="RcSikvNdpBfUBouSiyMR-1">
          <mxGeometry relative="1" as="geometry">
            <mxPoint x="-35" y="578" as="sourcePoint" />
            <mxPoint x="197" y="542" as="targetPoint" />
          </mxGeometry>
        </mxCell>
        <mxCell id="RcSikvNdpBfUBouSiyMR-75" value="" style="endArrow=none;html=1;rounded=0;" edge="1" parent="1" source="RcSikvNdpBfUBouSiyMR-3" target="RcSikvNdpBfUBouSiyMR-1">
          <mxGeometry relative="1" as="geometry">
            <mxPoint x="-48" y="206" as="sourcePoint" />
            <mxPoint x="184" y="170" as="targetPoint" />
          </mxGeometry>
        </mxCell>
        <mxCell id="RcSikvNdpBfUBouSiyMR-77" value="" style="endArrow=none;html=1;rounded=0;" edge="1" parent="1" source="RcSikvNdpBfUBouSiyMR-30" target="RcSikvNdpBfUBouSiyMR-1">
          <mxGeometry relative="1" as="geometry">
            <mxPoint x="-52" y="509" as="sourcePoint" />
            <mxPoint x="184" y="410" as="targetPoint" />
          </mxGeometry>
        </mxCell>
        <mxCell id="RcSikvNdpBfUBouSiyMR-78" value="&lt;font style=&quot;font-size: 30px;&quot;&gt;PK&lt;/font&gt;" style="ellipse;whiteSpace=wrap;html=1;fillColor=#dae8fc;strokeColor=#6c8ebf;" vertex="1" parent="1">
          <mxGeometry x="720" y="30" width="165" height="60" as="geometry" />
        </mxCell>
        <mxCell id="RcSikvNdpBfUBouSiyMR-79" value="&lt;font style=&quot;font-size: 21px;&quot;&gt;제품 색상&lt;/font&gt;" style="ellipse;shape=doubleEllipse;margin=3;whiteSpace=wrap;html=1;align=center;" vertex="1" parent="1">
          <mxGeometry x="845" y="490" width="170" height="100" as="geometry" />
        </mxCell>
        <mxCell id="RcSikvNdpBfUBouSiyMR-80" value="&lt;span style=&quot;font-size: 21px;&quot;&gt;멀티 (여러가지)&lt;/span&gt;" style="ellipse;shape=doubleEllipse;margin=3;whiteSpace=wrap;html=1;align=center;" vertex="1" parent="1">
          <mxGeometry x="717.5" y="105" width="170" height="100" as="geometry" />
        </mxCell>
      </root>
    </mxGraphModel>
  </diagram>
  <diagram id="TFXyS2FbPO9qw23YX4kT" name="페이지-2">
    <mxGraphModel dx="1434" dy="780" grid="1" gridSize="10" guides="1" tooltips="1" connect="1" arrows="1" fold="1" page="1" pageScale="1" pageWidth="827" pageHeight="1169" math="0" shadow="0">
      <root>
        <mxCell id="0" />
        <mxCell id="1" parent="0" />
        <mxCell id="btl2BdpCcOsS0AvJIKrZ-1" value="고객" style="shape=table;startSize=30;container=1;collapsible=1;childLayout=tableLayout;fixedRows=1;rowLines=0;fontStyle=1;align=center;resizeLast=1;html=1;whiteSpace=wrap;" vertex="1" parent="1">
          <mxGeometry x="20" y="150" width="180" height="270" as="geometry" />
        </mxCell>
        <mxCell id="btl2BdpCcOsS0AvJIKrZ-2" value="" style="shape=tableRow;horizontal=0;startSize=0;swimlaneHead=0;swimlaneBody=0;fillColor=none;collapsible=0;dropTarget=0;points=[[0,0.5],[1,0.5]];portConstraint=eastwest;top=0;left=0;right=0;bottom=0;html=1;" vertex="1" parent="btl2BdpCcOsS0AvJIKrZ-1">
          <mxGeometry y="30" width="180" height="30" as="geometry" />
        </mxCell>
        <mxCell id="btl2BdpCcOsS0AvJIKrZ-3" value="PK" style="shape=partialRectangle;connectable=0;fillColor=none;top=0;left=0;bottom=0;right=0;fontStyle=1;overflow=hidden;html=1;whiteSpace=wrap;" vertex="1" parent="btl2BdpCcOsS0AvJIKrZ-2">
          <mxGeometry width="60" height="30" as="geometry">
            <mxRectangle width="60" height="30" as="alternateBounds" />
          </mxGeometry>
        </mxCell>
        <mxCell id="btl2BdpCcOsS0AvJIKrZ-4" value="고객코드" style="shape=partialRectangle;connectable=0;fillColor=none;top=0;left=0;bottom=0;right=0;align=left;spacingLeft=6;fontStyle=5;overflow=hidden;html=1;whiteSpace=wrap;" vertex="1" parent="btl2BdpCcOsS0AvJIKrZ-2">
          <mxGeometry x="60" width="120" height="30" as="geometry">
            <mxRectangle width="120" height="30" as="alternateBounds" />
          </mxGeometry>
        </mxCell>
        <mxCell id="btl2BdpCcOsS0AvJIKrZ-8" value="" style="shape=tableRow;horizontal=0;startSize=0;swimlaneHead=0;swimlaneBody=0;fillColor=none;collapsible=0;dropTarget=0;points=[[0,0.5],[1,0.5]];portConstraint=eastwest;top=0;left=0;right=0;bottom=0;html=1;" vertex="1" parent="btl2BdpCcOsS0AvJIKrZ-1">
          <mxGeometry y="60" width="180" height="30" as="geometry" />
        </mxCell>
        <mxCell id="btl2BdpCcOsS0AvJIKrZ-9" value="" style="shape=partialRectangle;connectable=0;fillColor=none;top=0;left=0;bottom=0;right=0;editable=1;overflow=hidden;html=1;whiteSpace=wrap;" vertex="1" parent="btl2BdpCcOsS0AvJIKrZ-8">
          <mxGeometry width="60" height="30" as="geometry">
            <mxRectangle width="60" height="30" as="alternateBounds" />
          </mxGeometry>
        </mxCell>
        <mxCell id="btl2BdpCcOsS0AvJIKrZ-10" value="지역코드" style="shape=partialRectangle;connectable=0;fillColor=none;top=0;left=0;bottom=0;right=0;align=left;spacingLeft=6;overflow=hidden;html=1;whiteSpace=wrap;" vertex="1" parent="btl2BdpCcOsS0AvJIKrZ-8">
          <mxGeometry x="60" width="120" height="30" as="geometry">
            <mxRectangle width="120" height="30" as="alternateBounds" />
          </mxGeometry>
        </mxCell>
        <mxCell id="btl2BdpCcOsS0AvJIKrZ-11" value="" style="shape=tableRow;horizontal=0;startSize=0;swimlaneHead=0;swimlaneBody=0;fillColor=none;collapsible=0;dropTarget=0;points=[[0,0.5],[1,0.5]];portConstraint=eastwest;top=0;left=0;right=0;bottom=0;html=1;" vertex="1" parent="btl2BdpCcOsS0AvJIKrZ-1">
          <mxGeometry y="90" width="180" height="30" as="geometry" />
        </mxCell>
        <mxCell id="btl2BdpCcOsS0AvJIKrZ-12" value="" style="shape=partialRectangle;connectable=0;fillColor=none;top=0;left=0;bottom=0;right=0;editable=1;overflow=hidden;html=1;whiteSpace=wrap;" vertex="1" parent="btl2BdpCcOsS0AvJIKrZ-11">
          <mxGeometry width="60" height="30" as="geometry">
            <mxRectangle width="60" height="30" as="alternateBounds" />
          </mxGeometry>
        </mxCell>
        <mxCell id="btl2BdpCcOsS0AvJIKrZ-13" value="고객명" style="shape=partialRectangle;connectable=0;fillColor=none;top=0;left=0;bottom=0;right=0;align=left;spacingLeft=6;overflow=hidden;html=1;whiteSpace=wrap;" vertex="1" parent="btl2BdpCcOsS0AvJIKrZ-11">
          <mxGeometry x="60" width="120" height="30" as="geometry">
            <mxRectangle width="120" height="30" as="alternateBounds" />
          </mxGeometry>
        </mxCell>
        <mxCell id="rziEn2k20jFtmdD8DgHn-1" value="" style="shape=tableRow;horizontal=0;startSize=0;swimlaneHead=0;swimlaneBody=0;fillColor=none;collapsible=0;dropTarget=0;points=[[0,0.5],[1,0.5]];portConstraint=eastwest;top=0;left=0;right=0;bottom=0;html=1;" vertex="1" parent="btl2BdpCcOsS0AvJIKrZ-1">
          <mxGeometry y="120" width="180" height="30" as="geometry" />
        </mxCell>
        <mxCell id="rziEn2k20jFtmdD8DgHn-2" value="" style="shape=partialRectangle;connectable=0;fillColor=none;top=0;left=0;bottom=0;right=0;editable=1;overflow=hidden;html=1;whiteSpace=wrap;" vertex="1" parent="rziEn2k20jFtmdD8DgHn-1">
          <mxGeometry width="60" height="30" as="geometry">
            <mxRectangle width="60" height="30" as="alternateBounds" />
          </mxGeometry>
        </mxCell>
        <mxCell id="rziEn2k20jFtmdD8DgHn-3" value="전화번호" style="shape=partialRectangle;connectable=0;fillColor=none;top=0;left=0;bottom=0;right=0;align=left;spacingLeft=6;overflow=hidden;html=1;whiteSpace=wrap;" vertex="1" parent="rziEn2k20jFtmdD8DgHn-1">
          <mxGeometry x="60" width="120" height="30" as="geometry">
            <mxRectangle width="120" height="30" as="alternateBounds" />
          </mxGeometry>
        </mxCell>
        <mxCell id="rziEn2k20jFtmdD8DgHn-4" value="" style="shape=tableRow;horizontal=0;startSize=0;swimlaneHead=0;swimlaneBody=0;fillColor=none;collapsible=0;dropTarget=0;points=[[0,0.5],[1,0.5]];portConstraint=eastwest;top=0;left=0;right=0;bottom=0;html=1;" vertex="1" parent="btl2BdpCcOsS0AvJIKrZ-1">
          <mxGeometry y="150" width="180" height="30" as="geometry" />
        </mxCell>
        <mxCell id="rziEn2k20jFtmdD8DgHn-5" value="" style="shape=partialRectangle;connectable=0;fillColor=none;top=0;left=0;bottom=0;right=0;editable=1;overflow=hidden;html=1;whiteSpace=wrap;" vertex="1" parent="rziEn2k20jFtmdD8DgHn-4">
          <mxGeometry width="60" height="30" as="geometry">
            <mxRectangle width="60" height="30" as="alternateBounds" />
          </mxGeometry>
        </mxCell>
        <mxCell id="rziEn2k20jFtmdD8DgHn-6" value="이메일" style="shape=partialRectangle;connectable=0;fillColor=none;top=0;left=0;bottom=0;right=0;align=left;spacingLeft=6;overflow=hidden;html=1;whiteSpace=wrap;" vertex="1" parent="rziEn2k20jFtmdD8DgHn-4">
          <mxGeometry x="60" width="120" height="30" as="geometry">
            <mxRectangle width="120" height="30" as="alternateBounds" />
          </mxGeometry>
        </mxCell>
        <mxCell id="rziEn2k20jFtmdD8DgHn-7" value="" style="shape=tableRow;horizontal=0;startSize=0;swimlaneHead=0;swimlaneBody=0;fillColor=none;collapsible=0;dropTarget=0;points=[[0,0.5],[1,0.5]];portConstraint=eastwest;top=0;left=0;right=0;bottom=0;html=1;" vertex="1" parent="btl2BdpCcOsS0AvJIKrZ-1">
          <mxGeometry y="180" width="180" height="30" as="geometry" />
        </mxCell>
        <mxCell id="rziEn2k20jFtmdD8DgHn-8" value="" style="shape=partialRectangle;connectable=0;fillColor=none;top=0;left=0;bottom=0;right=0;editable=1;overflow=hidden;html=1;whiteSpace=wrap;" vertex="1" parent="rziEn2k20jFtmdD8DgHn-7">
          <mxGeometry width="60" height="30" as="geometry">
            <mxRectangle width="60" height="30" as="alternateBounds" />
          </mxGeometry>
        </mxCell>
        <mxCell id="rziEn2k20jFtmdD8DgHn-9" value="가입일" style="shape=partialRectangle;connectable=0;fillColor=none;top=0;left=0;bottom=0;right=0;align=left;spacingLeft=6;overflow=hidden;html=1;whiteSpace=wrap;" vertex="1" parent="rziEn2k20jFtmdD8DgHn-7">
          <mxGeometry x="60" width="120" height="30" as="geometry">
            <mxRectangle width="120" height="30" as="alternateBounds" />
          </mxGeometry>
        </mxCell>
        <mxCell id="VMxp1ezBEbbwMuMW99SZ-14" value="" style="shape=tableRow;horizontal=0;startSize=0;swimlaneHead=0;swimlaneBody=0;fillColor=none;collapsible=0;dropTarget=0;points=[[0,0.5],[1,0.5]];portConstraint=eastwest;top=0;left=0;right=0;bottom=0;html=1;" vertex="1" parent="btl2BdpCcOsS0AvJIKrZ-1">
          <mxGeometry y="210" width="180" height="30" as="geometry" />
        </mxCell>
        <mxCell id="VMxp1ezBEbbwMuMW99SZ-15" value="" style="shape=partialRectangle;connectable=0;fillColor=none;top=0;left=0;bottom=0;right=0;editable=1;overflow=hidden;html=1;whiteSpace=wrap;" vertex="1" parent="VMxp1ezBEbbwMuMW99SZ-14">
          <mxGeometry width="60" height="30" as="geometry">
            <mxRectangle width="60" height="30" as="alternateBounds" />
          </mxGeometry>
        </mxCell>
        <mxCell id="VMxp1ezBEbbwMuMW99SZ-16" value="기본주소" style="shape=partialRectangle;connectable=0;fillColor=none;top=0;left=0;bottom=0;right=0;align=left;spacingLeft=6;overflow=hidden;html=1;whiteSpace=wrap;" vertex="1" parent="VMxp1ezBEbbwMuMW99SZ-14">
          <mxGeometry x="60" width="120" height="30" as="geometry">
            <mxRectangle width="120" height="30" as="alternateBounds" />
          </mxGeometry>
        </mxCell>
        <mxCell id="VMxp1ezBEbbwMuMW99SZ-21" value="" style="shape=tableRow;horizontal=0;startSize=0;swimlaneHead=0;swimlaneBody=0;fillColor=none;collapsible=0;dropTarget=0;points=[[0,0.5],[1,0.5]];portConstraint=eastwest;top=0;left=0;right=0;bottom=0;html=1;" vertex="1" parent="btl2BdpCcOsS0AvJIKrZ-1">
          <mxGeometry y="240" width="180" height="30" as="geometry" />
        </mxCell>
        <mxCell id="VMxp1ezBEbbwMuMW99SZ-22" value="" style="shape=partialRectangle;connectable=0;fillColor=none;top=0;left=0;bottom=0;right=0;fontStyle=1;overflow=hidden;html=1;whiteSpace=wrap;" vertex="1" parent="VMxp1ezBEbbwMuMW99SZ-21">
          <mxGeometry width="60" height="30" as="geometry">
            <mxRectangle width="60" height="30" as="alternateBounds" />
          </mxGeometry>
        </mxCell>
        <mxCell id="VMxp1ezBEbbwMuMW99SZ-23" value="상세주소" style="shape=partialRectangle;connectable=0;fillColor=none;top=0;left=0;bottom=0;right=0;align=left;spacingLeft=6;fontStyle=5;overflow=hidden;html=1;whiteSpace=wrap;" vertex="1" parent="VMxp1ezBEbbwMuMW99SZ-21">
          <mxGeometry x="60" width="120" height="30" as="geometry">
            <mxRectangle width="120" height="30" as="alternateBounds" />
          </mxGeometry>
        </mxCell>
        <mxCell id="rziEn2k20jFtmdD8DgHn-56" value="지역" style="shape=table;startSize=30;container=1;collapsible=1;childLayout=tableLayout;fixedRows=1;rowLines=0;fontStyle=1;align=center;resizeLast=1;html=1;" vertex="1" parent="1">
          <mxGeometry x="560" y="180" width="170" height="140" as="geometry" />
        </mxCell>
        <mxCell id="rziEn2k20jFtmdD8DgHn-57" value="" style="shape=tableRow;horizontal=0;startSize=0;swimlaneHead=0;swimlaneBody=0;fillColor=none;collapsible=0;dropTarget=0;points=[[0,0.5],[1,0.5]];portConstraint=eastwest;top=0;left=0;right=0;bottom=1;" vertex="1" parent="rziEn2k20jFtmdD8DgHn-56">
          <mxGeometry y="30" width="170" height="30" as="geometry" />
        </mxCell>
        <mxCell id="rziEn2k20jFtmdD8DgHn-58" value="PK" style="shape=partialRectangle;connectable=0;fillColor=none;top=0;left=0;bottom=0;right=0;fontStyle=1;overflow=hidden;whiteSpace=wrap;html=1;" vertex="1" parent="rziEn2k20jFtmdD8DgHn-57">
          <mxGeometry width="30" height="30" as="geometry">
            <mxRectangle width="30" height="30" as="alternateBounds" />
          </mxGeometry>
        </mxCell>
        <mxCell id="rziEn2k20jFtmdD8DgHn-59" value="지역코드" style="shape=partialRectangle;connectable=0;fillColor=none;top=0;left=0;bottom=0;right=0;align=left;spacingLeft=6;fontStyle=5;overflow=hidden;whiteSpace=wrap;html=1;" vertex="1" parent="rziEn2k20jFtmdD8DgHn-57">
          <mxGeometry x="30" width="140" height="30" as="geometry">
            <mxRectangle width="140" height="30" as="alternateBounds" />
          </mxGeometry>
        </mxCell>
        <mxCell id="rziEn2k20jFtmdD8DgHn-60" value="" style="shape=tableRow;horizontal=0;startSize=0;swimlaneHead=0;swimlaneBody=0;fillColor=none;collapsible=0;dropTarget=0;points=[[0,0.5],[1,0.5]];portConstraint=eastwest;top=0;left=0;right=0;bottom=0;" vertex="1" parent="rziEn2k20jFtmdD8DgHn-56">
          <mxGeometry y="60" width="170" height="30" as="geometry" />
        </mxCell>
        <mxCell id="rziEn2k20jFtmdD8DgHn-61" value="" style="shape=partialRectangle;connectable=0;fillColor=none;top=0;left=0;bottom=0;right=0;editable=1;overflow=hidden;whiteSpace=wrap;html=1;" vertex="1" parent="rziEn2k20jFtmdD8DgHn-60">
          <mxGeometry width="30" height="30" as="geometry">
            <mxRectangle width="30" height="30" as="alternateBounds" />
          </mxGeometry>
        </mxCell>
        <mxCell id="rziEn2k20jFtmdD8DgHn-62" value="지역명" style="shape=partialRectangle;connectable=0;fillColor=none;top=0;left=0;bottom=0;right=0;align=left;spacingLeft=6;overflow=hidden;whiteSpace=wrap;html=1;" vertex="1" parent="rziEn2k20jFtmdD8DgHn-60">
          <mxGeometry x="30" width="140" height="30" as="geometry">
            <mxRectangle width="140" height="30" as="alternateBounds" />
          </mxGeometry>
        </mxCell>
        <mxCell id="rziEn2k20jFtmdD8DgHn-63" value="" style="shape=tableRow;horizontal=0;startSize=0;swimlaneHead=0;swimlaneBody=0;fillColor=none;collapsible=0;dropTarget=0;points=[[0,0.5],[1,0.5]];portConstraint=eastwest;top=0;left=0;right=0;bottom=0;" vertex="1" parent="rziEn2k20jFtmdD8DgHn-56">
          <mxGeometry y="90" width="170" height="30" as="geometry" />
        </mxCell>
        <mxCell id="rziEn2k20jFtmdD8DgHn-64" value="" style="shape=partialRectangle;connectable=0;fillColor=none;top=0;left=0;bottom=0;right=0;editable=1;overflow=hidden;whiteSpace=wrap;html=1;" vertex="1" parent="rziEn2k20jFtmdD8DgHn-63">
          <mxGeometry width="30" height="30" as="geometry">
            <mxRectangle width="30" height="30" as="alternateBounds" />
          </mxGeometry>
        </mxCell>
        <mxCell id="rziEn2k20jFtmdD8DgHn-65" value="" style="shape=partialRectangle;connectable=0;fillColor=none;top=0;left=0;bottom=0;right=0;align=left;spacingLeft=6;overflow=hidden;whiteSpace=wrap;html=1;" vertex="1" parent="rziEn2k20jFtmdD8DgHn-63">
          <mxGeometry x="30" width="140" height="30" as="geometry">
            <mxRectangle width="140" height="30" as="alternateBounds" />
          </mxGeometry>
        </mxCell>
        <mxCell id="rziEn2k20jFtmdD8DgHn-66" value="" style="shape=tableRow;horizontal=0;startSize=0;swimlaneHead=0;swimlaneBody=0;fillColor=none;collapsible=0;dropTarget=0;points=[[0,0.5],[1,0.5]];portConstraint=eastwest;top=0;left=0;right=0;bottom=0;" vertex="1" parent="rziEn2k20jFtmdD8DgHn-56">
          <mxGeometry y="120" width="170" height="20" as="geometry" />
        </mxCell>
        <mxCell id="rziEn2k20jFtmdD8DgHn-67" value="" style="shape=partialRectangle;connectable=0;fillColor=none;top=0;left=0;bottom=0;right=0;editable=1;overflow=hidden;whiteSpace=wrap;html=1;" vertex="1" parent="rziEn2k20jFtmdD8DgHn-66">
          <mxGeometry width="30" height="20" as="geometry">
            <mxRectangle width="30" height="20" as="alternateBounds" />
          </mxGeometry>
        </mxCell>
        <mxCell id="rziEn2k20jFtmdD8DgHn-68" value="" style="shape=partialRectangle;connectable=0;fillColor=none;top=0;left=0;bottom=0;right=0;align=left;spacingLeft=6;overflow=hidden;whiteSpace=wrap;html=1;" vertex="1" parent="rziEn2k20jFtmdD8DgHn-66">
          <mxGeometry x="30" width="140" height="20" as="geometry">
            <mxRectangle width="140" height="20" as="alternateBounds" />
          </mxGeometry>
        </mxCell>
        <mxCell id="rziEn2k20jFtmdD8DgHn-83" value="제품" style="shape=table;startSize=30;container=1;collapsible=1;childLayout=tableLayout;fixedRows=1;rowLines=0;fontStyle=1;align=center;resizeLast=1;html=1;" vertex="1" parent="1">
          <mxGeometry x="560" y="420" width="180" height="150" as="geometry" />
        </mxCell>
        <mxCell id="rziEn2k20jFtmdD8DgHn-84" value="" style="shape=tableRow;horizontal=0;startSize=0;swimlaneHead=0;swimlaneBody=0;fillColor=none;collapsible=0;dropTarget=0;points=[[0,0.5],[1,0.5]];portConstraint=eastwest;top=0;left=0;right=0;bottom=1;" vertex="1" parent="rziEn2k20jFtmdD8DgHn-83">
          <mxGeometry y="30" width="180" height="30" as="geometry" />
        </mxCell>
        <mxCell id="rziEn2k20jFtmdD8DgHn-85" value="PK" style="shape=partialRectangle;connectable=0;fillColor=none;top=0;left=0;bottom=0;right=0;fontStyle=1;overflow=hidden;whiteSpace=wrap;html=1;" vertex="1" parent="rziEn2k20jFtmdD8DgHn-84">
          <mxGeometry width="30" height="30" as="geometry">
            <mxRectangle width="30" height="30" as="alternateBounds" />
          </mxGeometry>
        </mxCell>
        <mxCell id="rziEn2k20jFtmdD8DgHn-86" value="제품코드" style="shape=partialRectangle;connectable=0;fillColor=none;top=0;left=0;bottom=0;right=0;align=left;spacingLeft=6;fontStyle=5;overflow=hidden;whiteSpace=wrap;html=1;" vertex="1" parent="rziEn2k20jFtmdD8DgHn-84">
          <mxGeometry x="30" width="150" height="30" as="geometry">
            <mxRectangle width="150" height="30" as="alternateBounds" />
          </mxGeometry>
        </mxCell>
        <mxCell id="rziEn2k20jFtmdD8DgHn-87" value="" style="shape=tableRow;horizontal=0;startSize=0;swimlaneHead=0;swimlaneBody=0;fillColor=none;collapsible=0;dropTarget=0;points=[[0,0.5],[1,0.5]];portConstraint=eastwest;top=0;left=0;right=0;bottom=0;" vertex="1" parent="rziEn2k20jFtmdD8DgHn-83">
          <mxGeometry y="60" width="180" height="30" as="geometry" />
        </mxCell>
        <mxCell id="rziEn2k20jFtmdD8DgHn-88" value="" style="shape=partialRectangle;connectable=0;fillColor=none;top=0;left=0;bottom=0;right=0;editable=1;overflow=hidden;whiteSpace=wrap;html=1;" vertex="1" parent="rziEn2k20jFtmdD8DgHn-87">
          <mxGeometry width="30" height="30" as="geometry">
            <mxRectangle width="30" height="30" as="alternateBounds" />
          </mxGeometry>
        </mxCell>
        <mxCell id="rziEn2k20jFtmdD8DgHn-89" value="제품명" style="shape=partialRectangle;connectable=0;fillColor=none;top=0;left=0;bottom=0;right=0;align=left;spacingLeft=6;overflow=hidden;whiteSpace=wrap;html=1;" vertex="1" parent="rziEn2k20jFtmdD8DgHn-87">
          <mxGeometry x="30" width="150" height="30" as="geometry">
            <mxRectangle width="150" height="30" as="alternateBounds" />
          </mxGeometry>
        </mxCell>
        <mxCell id="rziEn2k20jFtmdD8DgHn-90" value="" style="shape=tableRow;horizontal=0;startSize=0;swimlaneHead=0;swimlaneBody=0;fillColor=none;collapsible=0;dropTarget=0;points=[[0,0.5],[1,0.5]];portConstraint=eastwest;top=0;left=0;right=0;bottom=0;" vertex="1" parent="rziEn2k20jFtmdD8DgHn-83">
          <mxGeometry y="90" width="180" height="30" as="geometry" />
        </mxCell>
        <mxCell id="rziEn2k20jFtmdD8DgHn-91" value="" style="shape=partialRectangle;connectable=0;fillColor=none;top=0;left=0;bottom=0;right=0;editable=1;overflow=hidden;whiteSpace=wrap;html=1;" vertex="1" parent="rziEn2k20jFtmdD8DgHn-90">
          <mxGeometry width="30" height="30" as="geometry">
            <mxRectangle width="30" height="30" as="alternateBounds" />
          </mxGeometry>
        </mxCell>
        <mxCell id="rziEn2k20jFtmdD8DgHn-92" value="가격" style="shape=partialRectangle;connectable=0;fillColor=none;top=0;left=0;bottom=0;right=0;align=left;spacingLeft=6;overflow=hidden;whiteSpace=wrap;html=1;" vertex="1" parent="rziEn2k20jFtmdD8DgHn-90">
          <mxGeometry x="30" width="150" height="30" as="geometry">
            <mxRectangle width="150" height="30" as="alternateBounds" />
          </mxGeometry>
        </mxCell>
        <mxCell id="rziEn2k20jFtmdD8DgHn-93" value="" style="shape=tableRow;horizontal=0;startSize=0;swimlaneHead=0;swimlaneBody=0;fillColor=none;collapsible=0;dropTarget=0;points=[[0,0.5],[1,0.5]];portConstraint=eastwest;top=0;left=0;right=0;bottom=0;" vertex="1" parent="rziEn2k20jFtmdD8DgHn-83">
          <mxGeometry y="120" width="180" height="30" as="geometry" />
        </mxCell>
        <mxCell id="rziEn2k20jFtmdD8DgHn-94" value="" style="shape=partialRectangle;connectable=0;fillColor=none;top=0;left=0;bottom=0;right=0;editable=1;overflow=hidden;whiteSpace=wrap;html=1;" vertex="1" parent="rziEn2k20jFtmdD8DgHn-93">
          <mxGeometry width="30" height="30" as="geometry">
            <mxRectangle width="30" height="30" as="alternateBounds" />
          </mxGeometry>
        </mxCell>
        <mxCell id="rziEn2k20jFtmdD8DgHn-95" value="" style="shape=partialRectangle;connectable=0;fillColor=none;top=0;left=0;bottom=0;right=0;align=left;spacingLeft=6;overflow=hidden;whiteSpace=wrap;html=1;" vertex="1" parent="rziEn2k20jFtmdD8DgHn-93">
          <mxGeometry x="30" width="150" height="30" as="geometry">
            <mxRectangle width="150" height="30" as="alternateBounds" />
          </mxGeometry>
        </mxCell>
        <mxCell id="Ip_tiOwrKejiO4Wwtb1H-2" value="" style="edgeStyle=entityRelationEdgeStyle;fontSize=12;html=1;endArrow=ERoneToMany;startArrow=ERoneToMany;rounded=0;" edge="1" parent="1" source="VMxp1ezBEbbwMuMW99SZ-64" target="btl2BdpCcOsS0AvJIKrZ-1">
          <mxGeometry width="100" height="100" relative="1" as="geometry">
            <mxPoint x="200" y="605" as="sourcePoint" />
            <mxPoint x="290" y="370" as="targetPoint" />
          </mxGeometry>
        </mxCell>
        <mxCell id="Ip_tiOwrKejiO4Wwtb1H-4" value="관리" style="text;html=1;align=center;verticalAlign=middle;resizable=0;points=[];autosize=1;strokeColor=none;fillColor=none;" vertex="1" parent="1">
          <mxGeometry x="350" y="220" width="50" height="30" as="geometry" />
        </mxCell>
        <mxCell id="VMxp1ezBEbbwMuMW99SZ-17" value="FK" style="shape=partialRectangle;connectable=0;fillColor=none;top=0;left=0;bottom=0;right=0;fontStyle=1;overflow=hidden;html=1;whiteSpace=wrap;" vertex="1" parent="1">
          <mxGeometry x="20" y="210" width="60" height="30" as="geometry">
            <mxRectangle width="60" height="30" as="alternateBounds" />
          </mxGeometry>
        </mxCell>
        <mxCell id="VMxp1ezBEbbwMuMW99SZ-24" value="" style="edgeStyle=entityRelationEdgeStyle;fontSize=12;html=1;endArrow=ERzeroToMany;startArrow=ERmandOne;rounded=0;" edge="1" parent="1" source="rziEn2k20jFtmdD8DgHn-56" target="btl2BdpCcOsS0AvJIKrZ-1">
          <mxGeometry width="100" height="100" relative="1" as="geometry">
            <mxPoint x="360" y="430" as="sourcePoint" />
            <mxPoint x="460" y="330" as="targetPoint" />
          </mxGeometry>
        </mxCell>
        <mxCell id="VMxp1ezBEbbwMuMW99SZ-50" value="색상" style="shape=table;startSize=30;container=1;collapsible=1;childLayout=tableLayout;fixedRows=1;rowLines=0;fontStyle=1;align=center;resizeLast=1;html=1;whiteSpace=wrap;" vertex="1" parent="1">
          <mxGeometry x="570" y="650" width="180" height="140" as="geometry" />
        </mxCell>
        <mxCell id="VMxp1ezBEbbwMuMW99SZ-51" value="" style="shape=tableRow;horizontal=0;startSize=0;swimlaneHead=0;swimlaneBody=0;fillColor=none;collapsible=0;dropTarget=0;points=[[0,0.5],[1,0.5]];portConstraint=eastwest;top=0;left=0;right=0;bottom=0;html=1;" vertex="1" parent="VMxp1ezBEbbwMuMW99SZ-50">
          <mxGeometry y="30" width="180" height="20" as="geometry" />
        </mxCell>
        <mxCell id="VMxp1ezBEbbwMuMW99SZ-52" value="PK" style="shape=partialRectangle;connectable=0;fillColor=none;top=0;left=0;bottom=0;right=0;fontStyle=1;overflow=hidden;html=1;whiteSpace=wrap;" vertex="1" parent="VMxp1ezBEbbwMuMW99SZ-51">
          <mxGeometry width="60" height="20" as="geometry">
            <mxRectangle width="60" height="20" as="alternateBounds" />
          </mxGeometry>
        </mxCell>
        <mxCell id="VMxp1ezBEbbwMuMW99SZ-53" value="색상코드" style="shape=partialRectangle;connectable=0;fillColor=none;top=0;left=0;bottom=0;right=0;align=left;spacingLeft=6;fontStyle=5;overflow=hidden;html=1;whiteSpace=wrap;" vertex="1" parent="VMxp1ezBEbbwMuMW99SZ-51">
          <mxGeometry x="60" width="120" height="20" as="geometry">
            <mxRectangle width="120" height="20" as="alternateBounds" />
          </mxGeometry>
        </mxCell>
        <mxCell id="VMxp1ezBEbbwMuMW99SZ-54" value="" style="shape=tableRow;horizontal=0;startSize=0;swimlaneHead=0;swimlaneBody=0;fillColor=none;collapsible=0;dropTarget=0;points=[[0,0.5],[1,0.5]];portConstraint=eastwest;top=0;left=0;right=0;bottom=1;html=1;" vertex="1" parent="VMxp1ezBEbbwMuMW99SZ-50">
          <mxGeometry y="50" width="180" height="30" as="geometry" />
        </mxCell>
        <mxCell id="VMxp1ezBEbbwMuMW99SZ-55" value="FK" style="shape=partialRectangle;connectable=0;fillColor=none;top=0;left=0;bottom=0;right=0;fontStyle=1;overflow=hidden;html=1;whiteSpace=wrap;" vertex="1" parent="VMxp1ezBEbbwMuMW99SZ-54">
          <mxGeometry width="60" height="30" as="geometry">
            <mxRectangle width="60" height="30" as="alternateBounds" />
          </mxGeometry>
        </mxCell>
        <mxCell id="VMxp1ezBEbbwMuMW99SZ-56" value="제품코드" style="shape=partialRectangle;connectable=0;fillColor=none;top=0;left=0;bottom=0;right=0;align=left;spacingLeft=6;fontStyle=5;overflow=hidden;html=1;whiteSpace=wrap;" vertex="1" parent="VMxp1ezBEbbwMuMW99SZ-54">
          <mxGeometry x="60" width="120" height="30" as="geometry">
            <mxRectangle width="120" height="30" as="alternateBounds" />
          </mxGeometry>
        </mxCell>
        <mxCell id="VMxp1ezBEbbwMuMW99SZ-57" value="" style="shape=tableRow;horizontal=0;startSize=0;swimlaneHead=0;swimlaneBody=0;fillColor=none;collapsible=0;dropTarget=0;points=[[0,0.5],[1,0.5]];portConstraint=eastwest;top=0;left=0;right=0;bottom=0;html=1;" vertex="1" parent="VMxp1ezBEbbwMuMW99SZ-50">
          <mxGeometry y="80" width="180" height="30" as="geometry" />
        </mxCell>
        <mxCell id="VMxp1ezBEbbwMuMW99SZ-58" value="" style="shape=partialRectangle;connectable=0;fillColor=none;top=0;left=0;bottom=0;right=0;editable=1;overflow=hidden;html=1;whiteSpace=wrap;" vertex="1" parent="VMxp1ezBEbbwMuMW99SZ-57">
          <mxGeometry width="60" height="30" as="geometry">
            <mxRectangle width="60" height="30" as="alternateBounds" />
          </mxGeometry>
        </mxCell>
        <mxCell id="VMxp1ezBEbbwMuMW99SZ-59" value="Row 3" style="shape=partialRectangle;connectable=0;fillColor=none;top=0;left=0;bottom=0;right=0;align=left;spacingLeft=6;overflow=hidden;html=1;whiteSpace=wrap;" vertex="1" parent="VMxp1ezBEbbwMuMW99SZ-57">
          <mxGeometry x="60" width="120" height="30" as="geometry">
            <mxRectangle width="120" height="30" as="alternateBounds" />
          </mxGeometry>
        </mxCell>
        <mxCell id="VMxp1ezBEbbwMuMW99SZ-60" value="" style="shape=tableRow;horizontal=0;startSize=0;swimlaneHead=0;swimlaneBody=0;fillColor=none;collapsible=0;dropTarget=0;points=[[0,0.5],[1,0.5]];portConstraint=eastwest;top=0;left=0;right=0;bottom=0;html=1;" vertex="1" parent="VMxp1ezBEbbwMuMW99SZ-50">
          <mxGeometry y="110" width="180" height="30" as="geometry" />
        </mxCell>
        <mxCell id="VMxp1ezBEbbwMuMW99SZ-61" value="" style="shape=partialRectangle;connectable=0;fillColor=none;top=0;left=0;bottom=0;right=0;editable=1;overflow=hidden;html=1;whiteSpace=wrap;" vertex="1" parent="VMxp1ezBEbbwMuMW99SZ-60">
          <mxGeometry width="60" height="30" as="geometry">
            <mxRectangle width="60" height="30" as="alternateBounds" />
          </mxGeometry>
        </mxCell>
        <mxCell id="VMxp1ezBEbbwMuMW99SZ-62" value="Row 4" style="shape=partialRectangle;connectable=0;fillColor=none;top=0;left=0;bottom=0;right=0;align=left;spacingLeft=6;overflow=hidden;html=1;whiteSpace=wrap;" vertex="1" parent="VMxp1ezBEbbwMuMW99SZ-60">
          <mxGeometry x="60" width="120" height="30" as="geometry">
            <mxRectangle width="120" height="30" as="alternateBounds" />
          </mxGeometry>
        </mxCell>
        <mxCell id="VMxp1ezBEbbwMuMW99SZ-63" value="" style="edgeStyle=entityRelationEdgeStyle;fontSize=12;html=1;endArrow=ERzeroToMany;startArrow=ERmandOne;rounded=0;" edge="1" parent="1" source="rziEn2k20jFtmdD8DgHn-83" target="VMxp1ezBEbbwMuMW99SZ-50">
          <mxGeometry width="100" height="100" relative="1" as="geometry">
            <mxPoint x="360" y="910" as="sourcePoint" />
            <mxPoint x="460" y="810" as="targetPoint" />
          </mxGeometry>
        </mxCell>
        <mxCell id="VMxp1ezBEbbwMuMW99SZ-64" value="구매" style="shape=table;startSize=30;container=1;collapsible=1;childLayout=tableLayout;fixedRows=1;rowLines=0;fontStyle=1;align=center;resizeLast=1;html=1;whiteSpace=wrap;" vertex="1" parent="1">
          <mxGeometry x="10" y="460" width="180" height="180" as="geometry" />
        </mxCell>
        <mxCell id="VMxp1ezBEbbwMuMW99SZ-65" value="" style="shape=tableRow;horizontal=0;startSize=0;swimlaneHead=0;swimlaneBody=0;fillColor=none;collapsible=0;dropTarget=0;points=[[0,0.5],[1,0.5]];portConstraint=eastwest;top=0;left=0;right=0;bottom=0;html=1;" vertex="1" parent="VMxp1ezBEbbwMuMW99SZ-64">
          <mxGeometry y="30" width="180" height="30" as="geometry" />
        </mxCell>
        <mxCell id="VMxp1ezBEbbwMuMW99SZ-66" value="PK" style="shape=partialRectangle;connectable=0;fillColor=none;top=0;left=0;bottom=0;right=0;fontStyle=1;overflow=hidden;html=1;whiteSpace=wrap;" vertex="1" parent="VMxp1ezBEbbwMuMW99SZ-65">
          <mxGeometry width="60" height="30" as="geometry">
            <mxRectangle width="60" height="30" as="alternateBounds" />
          </mxGeometry>
        </mxCell>
        <mxCell id="VMxp1ezBEbbwMuMW99SZ-67" value="구매코드" style="shape=partialRectangle;connectable=0;fillColor=none;top=0;left=0;bottom=0;right=0;align=left;spacingLeft=6;fontStyle=5;overflow=hidden;html=1;whiteSpace=wrap;" vertex="1" parent="VMxp1ezBEbbwMuMW99SZ-65">
          <mxGeometry x="60" width="120" height="30" as="geometry">
            <mxRectangle width="120" height="30" as="alternateBounds" />
          </mxGeometry>
        </mxCell>
        <mxCell id="VMxp1ezBEbbwMuMW99SZ-80" value="" style="shape=tableRow;horizontal=0;startSize=0;swimlaneHead=0;swimlaneBody=0;fillColor=none;collapsible=0;dropTarget=0;points=[[0,0.5],[1,0.5]];portConstraint=eastwest;top=0;left=0;right=0;bottom=0;html=1;" vertex="1" parent="VMxp1ezBEbbwMuMW99SZ-64">
          <mxGeometry y="60" width="180" height="30" as="geometry" />
        </mxCell>
        <mxCell id="VMxp1ezBEbbwMuMW99SZ-81" value="FK" style="shape=partialRectangle;connectable=0;fillColor=none;top=0;left=0;bottom=0;right=0;fontStyle=1;overflow=hidden;html=1;whiteSpace=wrap;" vertex="1" parent="VMxp1ezBEbbwMuMW99SZ-80">
          <mxGeometry width="60" height="30" as="geometry">
            <mxRectangle width="60" height="30" as="alternateBounds" />
          </mxGeometry>
        </mxCell>
        <mxCell id="VMxp1ezBEbbwMuMW99SZ-82" value="고객코드" style="shape=partialRectangle;connectable=0;fillColor=none;top=0;left=0;bottom=0;right=0;align=left;spacingLeft=6;fontStyle=5;overflow=hidden;html=1;whiteSpace=wrap;" vertex="1" parent="VMxp1ezBEbbwMuMW99SZ-80">
          <mxGeometry x="60" width="120" height="30" as="geometry">
            <mxRectangle width="120" height="30" as="alternateBounds" />
          </mxGeometry>
        </mxCell>
        <mxCell id="VMxp1ezBEbbwMuMW99SZ-68" value="" style="shape=tableRow;horizontal=0;startSize=0;swimlaneHead=0;swimlaneBody=0;fillColor=none;collapsible=0;dropTarget=0;points=[[0,0.5],[1,0.5]];portConstraint=eastwest;top=0;left=0;right=0;bottom=1;html=1;" vertex="1" parent="VMxp1ezBEbbwMuMW99SZ-64">
          <mxGeometry y="90" width="180" height="30" as="geometry" />
        </mxCell>
        <mxCell id="VMxp1ezBEbbwMuMW99SZ-69" value="FK" style="shape=partialRectangle;connectable=0;fillColor=none;top=0;left=0;bottom=0;right=0;fontStyle=1;overflow=hidden;html=1;whiteSpace=wrap;" vertex="1" parent="VMxp1ezBEbbwMuMW99SZ-68">
          <mxGeometry width="60" height="30" as="geometry">
            <mxRectangle width="60" height="30" as="alternateBounds" />
          </mxGeometry>
        </mxCell>
        <mxCell id="VMxp1ezBEbbwMuMW99SZ-70" value="제품코드" style="shape=partialRectangle;connectable=0;fillColor=none;top=0;left=0;bottom=0;right=0;align=left;spacingLeft=6;fontStyle=5;overflow=hidden;html=1;whiteSpace=wrap;" vertex="1" parent="VMxp1ezBEbbwMuMW99SZ-68">
          <mxGeometry x="60" width="120" height="30" as="geometry">
            <mxRectangle width="120" height="30" as="alternateBounds" />
          </mxGeometry>
        </mxCell>
        <mxCell id="VMxp1ezBEbbwMuMW99SZ-71" value="" style="shape=tableRow;horizontal=0;startSize=0;swimlaneHead=0;swimlaneBody=0;fillColor=none;collapsible=0;dropTarget=0;points=[[0,0.5],[1,0.5]];portConstraint=eastwest;top=0;left=0;right=0;bottom=0;html=1;" vertex="1" parent="VMxp1ezBEbbwMuMW99SZ-64">
          <mxGeometry y="120" width="180" height="30" as="geometry" />
        </mxCell>
        <mxCell id="VMxp1ezBEbbwMuMW99SZ-72" value="" style="shape=partialRectangle;connectable=0;fillColor=none;top=0;left=0;bottom=0;right=0;editable=1;overflow=hidden;html=1;whiteSpace=wrap;" vertex="1" parent="VMxp1ezBEbbwMuMW99SZ-71">
          <mxGeometry width="60" height="30" as="geometry">
            <mxRectangle width="60" height="30" as="alternateBounds" />
          </mxGeometry>
        </mxCell>
        <mxCell id="VMxp1ezBEbbwMuMW99SZ-73" value="구매수량" style="shape=partialRectangle;connectable=0;fillColor=none;top=0;left=0;bottom=0;right=0;align=left;spacingLeft=6;overflow=hidden;html=1;whiteSpace=wrap;" vertex="1" parent="VMxp1ezBEbbwMuMW99SZ-71">
          <mxGeometry x="60" width="120" height="30" as="geometry">
            <mxRectangle width="120" height="30" as="alternateBounds" />
          </mxGeometry>
        </mxCell>
        <mxCell id="VMxp1ezBEbbwMuMW99SZ-74" value="" style="shape=tableRow;horizontal=0;startSize=0;swimlaneHead=0;swimlaneBody=0;fillColor=none;collapsible=0;dropTarget=0;points=[[0,0.5],[1,0.5]];portConstraint=eastwest;top=0;left=0;right=0;bottom=0;html=1;" vertex="1" parent="VMxp1ezBEbbwMuMW99SZ-64">
          <mxGeometry y="150" width="180" height="30" as="geometry" />
        </mxCell>
        <mxCell id="VMxp1ezBEbbwMuMW99SZ-75" value="" style="shape=partialRectangle;connectable=0;fillColor=none;top=0;left=0;bottom=0;right=0;editable=1;overflow=hidden;html=1;whiteSpace=wrap;" vertex="1" parent="VMxp1ezBEbbwMuMW99SZ-74">
          <mxGeometry width="60" height="30" as="geometry">
            <mxRectangle width="60" height="30" as="alternateBounds" />
          </mxGeometry>
        </mxCell>
        <mxCell id="VMxp1ezBEbbwMuMW99SZ-76" value="구매일자" style="shape=partialRectangle;connectable=0;fillColor=none;top=0;left=0;bottom=0;right=0;align=left;spacingLeft=6;overflow=hidden;html=1;whiteSpace=wrap;" vertex="1" parent="VMxp1ezBEbbwMuMW99SZ-74">
          <mxGeometry x="60" width="120" height="30" as="geometry">
            <mxRectangle width="120" height="30" as="alternateBounds" />
          </mxGeometry>
        </mxCell>
        <mxCell id="VMxp1ezBEbbwMuMW99SZ-83" value="" style="edgeStyle=entityRelationEdgeStyle;fontSize=12;html=1;endArrow=ERzeroToMany;startArrow=ERmandOne;rounded=0;" edge="1" parent="1" source="rziEn2k20jFtmdD8DgHn-83" target="VMxp1ezBEbbwMuMW99SZ-64">
          <mxGeometry width="100" height="100" relative="1" as="geometry">
            <mxPoint x="320" y="630" as="sourcePoint" />
            <mxPoint x="330" y="900" as="targetPoint" />
            <Array as="points">
              <mxPoint x="290" y="765" />
            </Array>
          </mxGeometry>
        </mxCell>
      </root>
    </mxGraphModel>
  </diagram>
</mxfile>
